<svg width="30" height="30" viewBox="0 0 30 30" fill="none" xmlns="http://www.w3.org/2000/svg">
<g clip-path="url(#clip0_19_49)">
<path d="M30.0001 15.0919C30.0001 6.75564 23.2838 -0.00186157 15.0001 -0.00186157C6.71259 1.34279e-05 -0.00366211 6.75564 -0.00366211 15.0938C-0.00366211 22.6256 5.48259 28.8694 12.6526 30.0019V19.455H8.84634V15.0938H12.6563V11.7656C12.6563 7.98376 14.897 5.89501 18.3226 5.89501C19.9651 5.89501 21.6807 6.18939 21.6807 6.18939V9.90189H19.7888C17.927 9.90189 17.3457 11.0663 17.3457 12.2606V15.0919H21.5045L20.8407 19.4531H17.3438V30C24.5138 28.8675 30.0001 22.6238 30.0001 15.0919Z" fill="black"/>
</g>
<defs>
<clipPath id="clip0_19_49">
<rect width="30" height="30" fill="white"/>
</clipPath>
</defs>
</svg>
