<svg width="30" height="30" viewBox="0 0 30 30" fill="none" xmlns="http://www.w3.org/2000/svg">
<g clip-path="url(#clip0_19_53)">
<path d="M15 0.46875C6.97852 0.46875 0.46875 6.97852 0.46875 15C0.46875 23.0215 6.97852 29.5312 15 29.5312C23.0215 29.5312 29.5312 23.0215 29.5312 15C29.5312 6.97852 23.0215 0.46875 15 0.46875ZM10.8574 22.2656C6.82617 22.2656 3.5918 19.0137 3.5918 15C3.5918 10.9863 6.82617 7.73438 10.8574 7.73438C12.6914 7.73438 14.3789 8.37891 15.7207 9.62695L13.752 11.5371C12.9785 10.7812 11.918 10.418 10.8574 10.418C8.34375 10.418 6.33398 12.498 6.33398 14.9941C6.33398 17.4902 8.33789 19.5703 10.8574 19.5703C12.7676 19.5703 14.6602 18.4512 14.9648 16.4473H10.8574V13.9512H17.707C17.7832 14.3496 17.8184 14.748 17.8184 15.1641C17.8184 19.3125 15.0352 22.2656 10.8574 22.2656ZM24.3457 16.043V18.123H22.2656V16.043H20.1855V13.9629H22.2656V11.8828H24.3457V13.9629H26.4082V16.043H24.3457Z" fill="black"/>
</g>
<defs>
<clipPath id="clip0_19_53">
<rect width="30" height="30" fill="white"/>
</clipPath>
</defs>
</svg>
