<svg width="20" height="20" viewBox="0 0 20 20" fill="none" xmlns="http://www.w3.org/2000/svg">
<path d="M12.0643 9.1405C12.1216 9.44338 12.1625 9.74625 12.1625 10.1391C12.1625 13.5689 9.86237 16 6.3999 16C3.08478 16 0.399902 13.3152 0.399902 10C0.399902 6.68484 3.08478 4 6.3999 4C8.02065 4 9.37125 4.58934 10.419 5.57162L8.79006 7.13506C8.34803 6.70941 7.57043 6.21009 6.3999 6.21009C4.35353 6.21009 2.68365 7.9045 2.68365 10C2.68365 12.0955 4.35353 13.7899 6.3999 13.7899C8.77368 13.7899 9.66593 12.0791 9.80506 11.2032H6.3999V9.14047H12.0643V9.1405ZM17.8582 9.34166V7.6H16.1082V9.34166H14.3666V11.0917H16.1082V12.8333H17.8582V11.0917H19.5999V9.34166H17.8582Z" fill="#C1C1C1"/>
</svg>
