<svg width="20" height="20" viewBox="0 0 20 20" fill="none" xmlns="http://www.w3.org/2000/svg">
<path d="M5.16719 17.5H1.53906V5.81638H5.16719V17.5ZM3.35117 4.22263C2.19102 4.22263 1.25 3.26169 1.25 2.10154C1.25 1.54427 1.47137 1.00983 1.86542 0.615785C2.25947 0.221739 2.79391 0.000366211 3.35117 0.000366211C3.90844 0.000366211 4.44288 0.221739 4.83692 0.615785C5.23097 1.00983 5.45234 1.54427 5.45234 2.10154C5.45234 3.26169 4.51094 4.22263 3.35117 4.22263ZM18.7461 17.5H15.1258V11.8125C15.1258 10.457 15.0984 8.71873 13.2395 8.71873C11.3531 8.71873 11.0641 10.1914 11.0641 11.7148V17.5H7.43984V5.81638H10.9195V7.41013H10.9703C11.4547 6.49216 12.6379 5.52341 14.4031 5.52341C18.075 5.52341 18.75 7.94138 18.75 11.082V17.5H18.7461Z" fill="#C1C1C1"/>
</svg>
