<svg width="21" height="17" viewBox="0 0 21 17" fill="none" xmlns="http://www.w3.org/2000/svg">
<g clip-path="url(#clip0_21_98)">
<path d="M10.4355 3.88183C10.4355 3.74744 10.3697 3.61855 10.2525 3.52352C10.1353 3.42849 9.97631 3.3751 9.81055 3.3751C9.64479 3.3751 9.48582 3.42849 9.36861 3.52352C9.2514 3.61855 9.18555 3.74744 9.18555 3.88183V9.45582C9.18558 9.54514 9.21474 9.63286 9.27005 9.7101C9.32537 9.78734 9.40489 9.85136 9.50055 9.89566L13.8755 11.9226C14.0191 11.9855 14.1873 12.0004 14.3443 11.964C14.5012 11.9277 14.6344 11.8431 14.7154 11.7282C14.7963 11.6133 14.8187 11.4773 14.7776 11.3492C14.7365 11.2212 14.6353 11.1112 14.4955 11.0429L10.4355 9.16192V3.88183Z" fill="black"/>
<path d="M10.4355 16.55C13.0877 16.55 15.6313 15.6958 17.5066 14.1753C19.382 12.6548 20.4355 10.5926 20.4355 8.44237C20.4355 6.29209 19.382 4.22989 17.5066 2.70941C15.6313 1.18894 13.0877 0.334743 10.4355 0.334743C7.78338 0.334743 5.23984 1.18894 3.36448 2.70941C1.48912 4.22989 0.435547 6.29209 0.435547 8.44237C0.435547 10.5926 1.48912 12.6548 3.36448 14.1753C5.23984 15.6958 7.78338 16.55 10.4355 16.55ZM19.1855 8.44237C19.1855 10.3239 18.2637 12.1283 16.6227 13.4587C14.9818 14.7891 12.7562 15.5365 10.4355 15.5365C8.1149 15.5365 5.88931 14.7891 4.24836 13.4587C2.60742 12.1283 1.68555 10.3239 1.68555 8.44237C1.68555 6.56088 2.60742 4.75645 4.24836 3.42603C5.88931 2.09562 8.1149 1.3482 10.4355 1.3482C12.7562 1.3482 14.9818 2.09562 16.6227 3.42603C18.2637 4.75645 19.1855 6.56088 19.1855 8.44237Z" fill="black"/>
</g>
<defs>
<clipPath id="clip0_21_98">
<rect width="20" height="16.2152" fill="white" transform="translate(0.435547 0.334743)"/>
</clipPath>
</defs>
</svg>
