<svg width="21" height="17" viewBox="0 0 21 17" fill="none" xmlns="http://www.w3.org/2000/svg">
<g clip-path="url(#clip0_21_102)">
<path d="M15.3268 10.7471C14.4244 10.7471 13.5951 10.9947 12.9404 11.4088L8.84984 9.38021C8.97098 8.94542 8.97098 8.49489 8.84984 8.0601L12.9404 6.03148C13.5951 6.44564 14.4244 6.69327 15.3268 6.69327C17.443 6.69327 19.1585 5.33204 19.1585 3.65291C19.1585 1.97377 17.443 0.612549 15.3268 0.612549C13.2106 0.612549 11.4951 1.97377 11.4951 3.65291C11.4951 3.8796 11.5267 4.10041 11.586 4.31295L7.49542 6.34157C6.84073 5.92744 6.01137 5.67981 5.10901 5.67981C2.99285 5.67981 1.27734 7.04104 1.27734 8.72017C1.27734 10.3993 2.99285 11.7605 5.10901 11.7605C6.01137 11.7605 6.84073 11.5129 7.49542 11.0988L11.586 13.1274C11.5255 13.3441 11.495 13.5655 11.4951 13.7874C11.4951 15.4666 13.2106 16.8278 15.3268 16.8278C17.443 16.8278 19.1585 15.4666 19.1585 13.7874C19.1585 12.1083 17.443 10.7471 15.3268 10.7471Z" fill="black"/>
</g>
<defs>
<clipPath id="clip0_21_102">
<rect width="20.4356" height="16.2152" fill="white" transform="translate(0 0.612549)"/>
</clipPath>
</defs>
</svg>
